<svg width="40" height="40" viewBox="0 0 100 100" xmlns="http://www.w3.org/2000/svg">
  <circle cx="50" cy="50" r="48" fill="#ffffff"/>
  <path d="M50,80 C34,80 19,69 17,54 C16,49 19,45 22,43 C23,37 26,29 30,25 C31,31 33,35 35,37 C35,31 37,23 41,19 C42,25 43,31 44,35 C45,29 48,23 53,21 C51,27 50,33 50,39 L50,80 Z" fill="#111111"/>
  <path d="M50,80 C56,77 66,71 72,60 C78,50 78,37 68,31 C63,28 57,29 53,33 C51,35 50,37 50,39 L50,80 Z" fill="#0b7a4b"/>
  <circle cx="65" cy="21" r="8" fill="#0b7a4b"/>
</svg>
